<svg width="75" height="181" viewBox="0 0 75 181" fill="none" xmlns="http://www.w3.org/2000/svg">
<path opacity="0.5" d="M39.8511 1.38936L39.6188 0.946585L58.851 96.7649C56.4046 99.8429 53.9861 101.536 51.707 101.628C49.3704 101.723 47.4224 100.139 45.9405 97.2785L45.8837 97.1689L45.8844 97.0454L46.1962 45.1653L46.197 45.0327L46.2635 44.9178C47.0057 43.6358 48.5089 42.1443 51.5191 41.0302L47.8804 7.44356C47.5539 7.66014 47.1342 7.91018 46.6697 8.11707C45.6334 8.57872 44.1038 8.933 43.0412 7.73691C42.5154 7.14527 42.3258 6.22476 42.2211 5.36552C42.1691 4.93885 42.1351 4.49239 42.1024 4.0625L42.0981 4.00538C42.0636 3.55275 42.0297 3.1202 41.977 2.7216C41.9242 2.32149 41.8551 1.97751 41.7577 1.70071C41.6595 1.42167 41.5456 1.24861 41.4277 1.14917C41.2492 0.998587 40.8541 0.863273 39.8512 1.38928C39.8512 1.38932 39.8511 1.38932 39.8511 1.38936ZM74.5341 160.555L74.0345 160.536C74.153 157.389 73.5491 154.343 72.3476 151.473L72.3365 151.446L72.3285 151.418C71.2182 147.574 69.455 142.432 66.718 136.65L66.7179 136.65C63.7738 130.426 62.6734 126.286 62.8312 122.101C62.9748 118.291 64.1644 114.473 65.8493 109.065C66.0008 108.578 66.1564 108.079 66.3155 107.566L66.3155 107.566C66.4024 107.286 66.4893 107.006 66.576 106.727C68.4351 100.747 70.2221 94.9976 70.1348 89.7417C70.0893 87.0061 69.5346 84.4217 68.2224 82.0222C67.0496 79.8777 65.2594 77.8583 62.6448 76.0044C62.6931 76.3169 62.7455 76.6854 62.797 77.102C62.9712 78.5094 63.1362 80.4708 63.0989 82.688C63.0248 87.1048 62.1471 92.6201 58.8511 96.7648L74.5341 160.555Z" stroke="#D90B0B"/>
</svg>
