<svg width="16" height="16" viewBox="0 0 16 16" fill="none" xmlns="http://www.w3.org/2000/svg">
<path fill-rule="evenodd" clip-rule="evenodd" d="M15.7625 4.70404C15.7255 3.8539 15.5899 3.26944 15.3957 2.76299C15.1954 2.22541 14.8872 1.74411 14.4833 1.34401C14.0888 0.937683 13.6111 0.621948 13.0871 0.421957C12.5848 0.22502 12.0114 0.0875415 11.1731 0.0500586C10.3285 0.00940124 10.0604 0 7.91826 0C5.77613 0 5.508 0.00940124 4.66654 0.0468842C3.82821 0.0843671 3.25186 0.221967 2.75257 0.418783C2.22233 0.621948 1.74772 0.934509 1.35318 1.34401C0.952491 1.74411 0.641262 2.22858 0.443929 2.75994C0.249726 3.26944 0.114158 3.85073 0.0771953 4.70087C0.0371027 5.55736 0.027832 5.82926 0.027832 8.00156C0.027832 10.1739 0.0371027 10.4458 0.074065 11.2991C0.111027 12.1492 0.246716 12.7337 0.440919 13.2401C0.641262 13.7777 0.952491 14.259 1.35318 14.6591C1.74772 15.0654 2.22546 15.3812 2.74944 15.5812C3.25186 15.7781 3.82508 15.9156 4.66353 15.9531C5.50487 15.9907 5.77312 15.9999 7.91525 15.9999C10.0574 15.9999 10.3255 15.9907 11.167 15.9531C12.0053 15.9156 12.5816 15.7781 13.0809 15.5812C14.1413 15.1654 14.9796 14.3153 15.3896 13.2401C15.5837 12.7306 15.7194 12.1492 15.7563 11.2991C15.7933 10.4458 15.8025 10.1739 15.8025 8.00156C15.8025 5.82926 15.7994 5.55736 15.7625 4.70404ZM14.3416 11.2366C14.3077 12.018 14.1783 12.4399 14.0704 12.7212C13.8053 13.4183 13.2597 13.9715 12.5724 14.2403C12.295 14.3497 11.8759 14.481 11.1083 14.5153C10.2761 14.5529 10.0266 14.5622 7.92139 14.5622C5.81622 14.5622 5.56351 14.5529 4.73432 14.5153C3.96377 14.481 3.54768 14.3497 3.27028 14.2403C2.92823 14.1121 2.61688 13.909 2.36416 13.6433C2.10218 13.3838 1.90183 13.0713 1.77541 12.7244C1.66754 12.4431 1.53811 12.018 1.50428 11.2397C1.46719 10.3958 1.45804 10.1426 1.45804 8.00779C1.45804 5.87297 1.46719 5.6167 1.50428 4.77596C1.53811 3.99455 1.66754 3.5726 1.77541 3.29129C1.90183 2.9443 2.10218 2.62869 2.36729 2.37229C2.62302 2.10661 2.93124 1.90345 3.27341 1.77537C3.55081 1.66597 3.97004 1.53472 4.73745 1.50029C5.56965 1.46281 5.81935 1.45341 7.9244 1.45341C10.0327 1.45341 10.2823 1.46281 11.1115 1.50029C11.882 1.53472 12.2981 1.66597 12.5755 1.77537C12.9176 1.90345 13.2289 2.10661 13.4816 2.37229C13.7436 2.63174 13.944 2.9443 14.0704 3.29129C14.1783 3.5726 14.3077 3.99761 14.3416 4.77596C14.3786 5.61987 14.3879 5.87297 14.3879 8.00779C14.3879 10.1426 14.3786 10.3927 14.3416 11.2366ZM8.05309 4C5.81549 4 4 5.84094 4 8.11018C4 10.3794 5.81549 12.2204 8.05309 12.2204C10.2908 12.2204 12.1062 10.3794 12.1062 8.11018C12.1062 5.84094 10.2908 4 8.05309 4ZM8.05309 10.7763C6.60145 10.7763 5.42395 9.58239 5.42395 8.11018C5.42395 6.63797 6.60145 5.44401 8.05309 5.44401C9.50486 5.44401 10.6822 6.63797 10.6822 8.11018C10.6822 9.58239 9.50486 10.7763 8.05309 10.7763ZM12.1315 4.68839C12.6542 4.68839 13.0778 4.25875 13.0778 3.72886C13.0778 3.19885 12.6542 2.76932 12.1315 2.76932C11.609 2.76932 11.1853 3.19885 11.1853 3.72886C11.1853 4.25875 11.609 4.68839 12.1315 4.68839Z" fill="#FAF7F7"/>
</svg>
